<?xml version="1.0" standalone="no"?>
<!DOCTYPE svg PUBLIC "-//W3C//DTD SVG 20010904//EN"
 "http://www.w3.org/TR/2001/REC-SVG-20010904/DTD/svg10.dtd">
<svg version="1.0" xmlns="http://www.w3.org/2000/svg"
 width="320.000000pt" height="240.000000pt" viewBox="0 0 320.000000 240.000000"
 preserveAspectRatio="xMidYMid meet">

<g transform="translate(0.000000,240.000000) scale(0.100000,-0.100000)"
fill="#000000" stroke="none">
<path d="M1583 2299 c-38 -14 -6 38 -600 -989 -106 -184 -196 -345 -199 -357
-12 -44 4 -73 49 -93 55 -24 91 -16 128 31 15 18 100 158 188 309 89 151 171
283 182 293 12 9 32 17 46 17 26 0 46 -18 146 -133 85 -98 88 -98 230 66 84
96 104 93 181 -32 168 -271 409 -699 414 -734 4 -33 0 -43 -28 -72 -19 -19
-48 -39 -66 -45 -75 -25 -133 36 -277 293 -128 230 -149 240 -264 117 -102
-108 -113 -108 -214 0 -62 66 -80 80 -105 80 -42 0 -62 -25 -130 -165 -48 -97
-71 -133 -124 -186 -115 -116 -217 -146 -420 -124 -119 13 -153 8 -164 -20
-13 -35 -6 -82 15 -101 20 -18 52 -19 1028 -19 1107 0 1062 -2 1069 59 2 15
-2 42 -9 60 -11 28 -202 362 -772 1346 -109 190 -210 357 -224 372 -29 31 -51
38 -80 27z"/>
<path d="M770 283 c0 -94 3 -113 15 -113 11 0 15 12 15 45 l0 45 39 0 c31 0
44 6 60 26 44 56 19 96 -68 104 l-61 6 0 -113z m105 77 c18 -15 20 -51 3 -68
-7 -7 -27 -12 -45 -12 -33 0 -33 0 -33 48 0 48 1 49 30 47 16 -1 36 -8 45 -15z"/>
<path d="M964 391 c-2 -2 -4 -53 -4 -113 0 -89 3 -108 15 -108 11 0 15 12 15
45 l0 45 40 0 c66 0 100 56 65 107 -11 16 -27 22 -71 25 -31 1 -58 1 -60 -1z
m103 -33 c16 -13 17 -50 1 -66 -7 -7 -27 -12 -45 -12 -32 0 -33 1 -33 43 0 24
3 47 7 51 9 9 53 -1 70 -16z"/>
<path d="M1790 290 c0 -67 4 -110 10 -110 6 0 10 11 10 24 0 39 19 41 54 7 47
-46 67 -38 21 9 l-39 40 34 35 c22 23 29 35 19 35 -9 0 -29 -16 -46 -35 -17
-19 -34 -35 -37 -35 -3 0 -6 32 -6 70 0 40 -4 70 -10 70 -6 0 -10 -43 -10
-110z"/>
<path d="M601 368 c-5 -13 -20 -54 -34 -93 -14 -38 -28 -78 -32 -87 -5 -13 -2
-18 8 -18 9 0 18 13 22 30 6 29 9 30 61 30 52 0 56 -2 65 -30 6 -16 17 -30 25
-30 10 0 3 28 -25 108 -31 86 -42 108 -60 110 -14 2 -24 -4 -30 -20z m44 -35
c33 -78 32 -83 -14 -83 -23 0 -41 3 -41 7 0 10 33 113 37 113 1 0 10 -17 18
-37z"/>
<path d="M1230 285 c0 -63 4 -105 10 -105 6 0 10 35 10 85 0 47 4 85 9 85 5 0
19 -25 32 -55 13 -30 29 -55 36 -55 6 0 21 25 34 55 12 30 26 55 31 55 4 0 8
-38 8 -85 0 -50 4 -85 10 -85 6 0 10 42 10 105 0 94 -2 105 -18 105 -12 0 -26
-20 -45 -62 l-29 -63 -31 63 c-21 41 -37 62 -49 62 -16 0 -18 -11 -18 -105z"/>
<path d="M2250 380 c0 -5 7 -10 15 -10 8 0 15 5 15 10 0 6 -7 10 -15 10 -8 0
-15 -4 -15 -10z"/>
<path d="M2140 362 c0 -10 -5 -23 -12 -30 -9 -9 -9 -12 0 -12 8 0 12 -21 12
-65 0 -54 3 -66 20 -75 12 -6 31 -8 43 -4 21 7 20 8 -8 14 -29 5 -30 7 -33 67
l-3 62 33 4 33 4 -32 1 c-28 2 -33 6 -33 27 0 14 -4 25 -10 25 -5 0 -10 -8
-10 -18z"/>
<path d="M1498 334 c-28 -8 -21 -25 7 -18 33 8 75 -3 75 -20 0 -8 -16 -17 -37
-21 -55 -10 -73 -23 -73 -50 0 -35 28 -58 59 -50 14 4 36 7 49 7 20 0 22 5 22
62 0 33 -4 67 -8 74 -9 14 -67 23 -94 16z m82 -99 c0 -45 -71 -60 -87 -19 -8
22 22 44 59 44 23 0 28 -4 28 -25z"/>
<path d="M1975 315 c-46 -45 -26 -127 33 -140 32 -7 82 9 82 25 0 7 -6 8 -19
0 -30 -16 -59 -12 -81 10 -38 38 -27 52 40 48 57 -3 60 -2 60 20 0 30 -34 62
-65 62 -14 0 -37 -11 -50 -25z m83 -7 c26 -26 13 -38 -38 -38 -52 0 -60 8 -34
34 18 19 55 21 72 4z"/>
<path d="M2390 330 c-8 -5 -23 -7 -32 -4 -16 5 -18 -3 -18 -70 0 -91 18 -102
22 -14 3 58 5 63 31 72 39 14 50 -2 48 -74 -1 -50 1 -60 15 -60 25 0 16 127
-11 146 -22 16 -34 17 -55 4z"/>
<path d="M2544 326 c-12 -9 -25 -31 -28 -50 -13 -67 34 -113 90 -87 20 9 24 8
24 -7 0 -33 -18 -47 -60 -46 -22 1 -40 -2 -40 -7 0 -5 20 -9 44 -9 63 0 76 21
76 127 0 64 -3 83 -14 83 -7 0 -26 2 -42 6 -18 3 -37 -1 -50 -10z m70 -12 c19
-7 22 -84 4 -102 -17 -17 -53 -15 -68 3 -16 19 -15 71 1 91 12 15 37 18 63 8z"/>
<path d="M1660 255 c0 -43 4 -75 10 -75 6 0 10 24 10 53 0 60 12 77 52 77 15
0 28 5 28 10 0 13 -36 13 -61 0 -13 -7 -19 -7 -19 0 0 5 -4 10 -10 10 -6 0
-10 -32 -10 -75z"/>
<path d="M2255 255 c0 -53 4 -75 13 -75 8 0 12 22 12 75 0 53 -4 75 -12 75 -9
0 -13 -22 -13 -75z"/>
</g>
</svg>
