<svg version="1.0" xmlns="http://www.w3.org/2000/svg"
 width="100%" height="100%" viewBox="0 0 300 200"
 preserveAspectRatio="xMidYMid meet">

	<g transform="translate(0.000000,240.000000) scale(0.100000,-0.100000)"
	fill="#000000" stroke="none">
	<path d="M1583 2299 c-38 -14 -6 38 -600 -989 -106 -184 -196 -345 -199 -357
	-12 -44 4 -73 49 -93 55 -24 91 -16 128 31 15 18 100 158 188 309 89 151 171
	283 182 293 12 9 32 17 46 17 26 0 46 -18 146 -133 85 -98 88 -98 230 66 84
	96 104 93 181 -32 168 -271 409 -699 414 -734 4 -33 0 -43 -28 -72 -19 -19
	-48 -39 -66 -45 -75 -25 -133 36 -277 293 -128 230 -149 240 -264 117 -102
	-108 -113 -108 -214 0 -62 66 -80 80 -105 80 -42 0 -62 -25 -130 -165 -48 -97
	-71 -133 -124 -186 -115 -116 -217 -146 -420 -124 -119 13 -153 8 -164 -20
	-13 -35 -6 -82 15 -101 20 -18 52 -19 1028 -19 1107 0 1062 -2 1069 59 2 15
	-2 42 -9 60 -11 28 -202 362 -772 1346 -109 190 -210 357 -224 372 -29 31 -51
	38 -80 27z"/>
	</g>
</svg>
